<mxfile host="65bd71144e">
    <diagram id="C5RBs43oDa-KdzZeNtuy" name="Page-1">
        <mxGraphModel dx="2103" dy="1168" grid="0" gridSize="10" guides="1" tooltips="1" connect="1" arrows="1" fold="1" page="0" pageScale="1" pageWidth="827" pageHeight="1169" math="0" shadow="0">
            <root>
                <mxCell id="WIyWlLk6GJQsqaUBKTNV-0"/>
                <mxCell id="WIyWlLk6GJQsqaUBKTNV-1" parent="WIyWlLk6GJQsqaUBKTNV-0"/>
                <mxCell id="3E4YJcaUi-_Q7NZZ8Shz-4" value="Persona" style="swimlane;fontStyle=1;align=center;verticalAlign=top;childLayout=stackLayout;horizontal=1;startSize=26;horizontalStack=0;resizeParent=1;resizeParentMax=0;resizeLast=0;collapsible=1;marginBottom=0;" parent="WIyWlLk6GJQsqaUBKTNV-1" vertex="1">
                    <mxGeometry x="-352" y="-70" width="476" height="144" as="geometry"/>
                </mxCell>
                <mxCell id="3E4YJcaUi-_Q7NZZ8Shz-5" value="-CF: String {get; set}&#10;-nome: String {get; set}&#10;-cognome: String {get; set}&#10;-dataNascita: GregorianCalendar {get; set}" style="text;strokeColor=none;fillColor=none;align=left;verticalAlign=top;spacingLeft=4;spacingRight=4;overflow=hidden;rotatable=0;points=[[0,0.5],[1,0.5]];portConstraint=eastwest;" parent="3E4YJcaUi-_Q7NZZ8Shz-4" vertex="1">
                    <mxGeometry y="26" width="476" height="84" as="geometry"/>
                </mxCell>
                <mxCell id="3E4YJcaUi-_Q7NZZ8Shz-6" value="" style="line;strokeWidth=1;fillColor=none;align=left;verticalAlign=middle;spacingTop=-1;spacingLeft=3;spacingRight=3;rotatable=0;labelPosition=right;points=[];portConstraint=eastwest;" parent="3E4YJcaUi-_Q7NZZ8Shz-4" vertex="1">
                    <mxGeometry y="110" width="476" height="8" as="geometry"/>
                </mxCell>
                <mxCell id="3E4YJcaUi-_Q7NZZ8Shz-7" value="+Persona(CF: String, nome: String, cognome: String, dataNascita: GregorianCalendar)" style="text;strokeColor=none;fillColor=none;align=left;verticalAlign=top;spacingLeft=4;spacingRight=4;overflow=hidden;rotatable=0;points=[[0,0.5],[1,0.5]];portConstraint=eastwest;" parent="3E4YJcaUi-_Q7NZZ8Shz-4" vertex="1">
                    <mxGeometry y="118" width="476" height="26" as="geometry"/>
                </mxCell>
                <mxCell id="3E4YJcaUi-_Q7NZZ8Shz-8" value="Studente" style="swimlane;fontStyle=1;align=center;verticalAlign=top;childLayout=stackLayout;horizontal=1;startSize=26;horizontalStack=0;resizeParent=1;resizeParentMax=0;resizeLast=0;collapsible=1;marginBottom=0;" parent="WIyWlLk6GJQsqaUBKTNV-1" vertex="1">
                    <mxGeometry x="-748" y="168" width="560" height="86" as="geometry"/>
                </mxCell>
                <mxCell id="3E4YJcaUi-_Q7NZZ8Shz-9" value="-classe: String {get; set}" style="text;strokeColor=none;fillColor=none;align=left;verticalAlign=top;spacingLeft=4;spacingRight=4;overflow=hidden;rotatable=0;points=[[0,0.5],[1,0.5]];portConstraint=eastwest;" parent="3E4YJcaUi-_Q7NZZ8Shz-8" vertex="1">
                    <mxGeometry y="26" width="560" height="26" as="geometry"/>
                </mxCell>
                <mxCell id="3E4YJcaUi-_Q7NZZ8Shz-10" value="" style="line;strokeWidth=1;fillColor=none;align=left;verticalAlign=middle;spacingTop=-1;spacingLeft=3;spacingRight=3;rotatable=0;labelPosition=right;points=[];portConstraint=eastwest;" parent="3E4YJcaUi-_Q7NZZ8Shz-8" vertex="1">
                    <mxGeometry y="52" width="560" height="8" as="geometry"/>
                </mxCell>
                <mxCell id="3E4YJcaUi-_Q7NZZ8Shz-11" value="+Studente(CF: String, nome: String, cognome: String, dataNascita: GregorianCalendar, classe: String)" style="text;strokeColor=none;fillColor=none;align=left;verticalAlign=top;spacingLeft=4;spacingRight=4;overflow=hidden;rotatable=0;points=[[0,0.5],[1,0.5]];portConstraint=eastwest;" parent="3E4YJcaUi-_Q7NZZ8Shz-8" vertex="1">
                    <mxGeometry y="60" width="560" height="26" as="geometry"/>
                </mxCell>
                <mxCell id="3E4YJcaUi-_Q7NZZ8Shz-12" value="Professore" style="swimlane;fontStyle=1;align=center;verticalAlign=top;childLayout=stackLayout;horizontal=1;startSize=26;horizontalStack=0;resizeParent=1;resizeParentMax=0;resizeLast=0;collapsible=1;marginBottom=0;" parent="WIyWlLk6GJQsqaUBKTNV-1" vertex="1">
                    <mxGeometry x="-47" y="164" width="576" height="86" as="geometry"/>
                </mxCell>
                <mxCell id="3E4YJcaUi-_Q7NZZ8Shz-13" value="-materia: String {get; set}" style="text;strokeColor=none;fillColor=none;align=left;verticalAlign=top;spacingLeft=4;spacingRight=4;overflow=hidden;rotatable=0;points=[[0,0.5],[1,0.5]];portConstraint=eastwest;" parent="3E4YJcaUi-_Q7NZZ8Shz-12" vertex="1">
                    <mxGeometry y="26" width="576" height="26" as="geometry"/>
                </mxCell>
                <mxCell id="3E4YJcaUi-_Q7NZZ8Shz-14" value="" style="line;strokeWidth=1;fillColor=none;align=left;verticalAlign=middle;spacingTop=-1;spacingLeft=3;spacingRight=3;rotatable=0;labelPosition=right;points=[];portConstraint=eastwest;" parent="3E4YJcaUi-_Q7NZZ8Shz-12" vertex="1">
                    <mxGeometry y="52" width="576" height="8" as="geometry"/>
                </mxCell>
                <mxCell id="3E4YJcaUi-_Q7NZZ8Shz-15" value="+Professore(CF: String, nome: String, cognome: String, dataNascita: GregorianCalendar, materia: String)" style="text;strokeColor=none;fillColor=none;align=left;verticalAlign=top;spacingLeft=4;spacingRight=4;overflow=hidden;rotatable=0;points=[[0,0.5],[1,0.5]];portConstraint=eastwest;" parent="3E4YJcaUi-_Q7NZZ8Shz-12" vertex="1">
                    <mxGeometry y="60" width="576" height="26" as="geometry"/>
                </mxCell>
                <mxCell id="3E4YJcaUi-_Q7NZZ8Shz-16" value="" style="endArrow=block;html=1;rounded=0;endFill=0;targetPerimeterSpacing=0;strokeWidth=2;" parent="WIyWlLk6GJQsqaUBKTNV-1" source="3E4YJcaUi-_Q7NZZ8Shz-8" target="3E4YJcaUi-_Q7NZZ8Shz-4" edge="1">
                    <mxGeometry width="50" height="50" relative="1" as="geometry">
                        <mxPoint x="-292" y="365" as="sourcePoint"/>
                        <mxPoint x="-242" y="315" as="targetPoint"/>
                    </mxGeometry>
                </mxCell>
                <mxCell id="3E4YJcaUi-_Q7NZZ8Shz-17" value="" style="endArrow=block;html=1;rounded=0;endFill=0;targetPerimeterSpacing=0;strokeWidth=2;" parent="WIyWlLk6GJQsqaUBKTNV-1" source="3E4YJcaUi-_Q7NZZ8Shz-12" target="3E4YJcaUi-_Q7NZZ8Shz-4" edge="1">
                    <mxGeometry width="50" height="50" relative="1" as="geometry">
                        <mxPoint x="-409.1076555023924" y="178" as="sourcePoint"/>
                        <mxPoint x="-253.04066985645932" y="84" as="targetPoint"/>
                    </mxGeometry>
                </mxCell>
                <mxCell id="3E4YJcaUi-_Q7NZZ8Shz-18" value="Registro" style="swimlane;fontStyle=1;align=center;verticalAlign=top;childLayout=stackLayout;horizontal=1;startSize=26;horizontalStack=0;resizeParent=1;resizeParentMax=0;resizeLast=0;collapsible=1;marginBottom=0;" parent="WIyWlLk6GJQsqaUBKTNV-1" vertex="1">
                    <mxGeometry x="-336" y="349" width="471" height="277" as="geometry"/>
                </mxCell>
                <mxCell id="3E4YJcaUi-_Q7NZZ8Shz-19" value="-studenti: Arraylist&lt;Studente&gt;&#10;-professori: Arraylist&lt;Professore&gt;" style="text;strokeColor=none;fillColor=none;align=left;verticalAlign=top;spacingLeft=4;spacingRight=4;overflow=hidden;rotatable=0;points=[[0,0.5],[1,0.5]];portConstraint=eastwest;" parent="3E4YJcaUi-_Q7NZZ8Shz-18" vertex="1">
                    <mxGeometry y="26" width="471" height="70" as="geometry"/>
                </mxCell>
                <mxCell id="3E4YJcaUi-_Q7NZZ8Shz-20" value="" style="line;strokeWidth=1;fillColor=none;align=left;verticalAlign=middle;spacingTop=-1;spacingLeft=3;spacingRight=3;rotatable=0;labelPosition=right;points=[];portConstraint=eastwest;" parent="3E4YJcaUi-_Q7NZZ8Shz-18" vertex="1">
                    <mxGeometry y="96" width="471" height="8" as="geometry"/>
                </mxCell>
                <mxCell id="3E4YJcaUi-_Q7NZZ8Shz-21" value="+main(args: String[]): void&#10;&#10;+AggiungiStudente(): void&#10;+AggiungiProfessore(): void&#10;&#10;+ModificaStudente(CF: String, nome: String, cognome: String, classe: String): void&#10;+ModificaProfessore(CF: String, nome: String, cognome: String, materia: String): void&#10;&#10;&#10;+EliminaStudente(CF: String): void&#10;+EliminaProfessore(CF: String): void" style="text;strokeColor=none;fillColor=none;align=left;verticalAlign=top;spacingLeft=4;spacingRight=4;overflow=hidden;rotatable=0;points=[[0,0.5],[1,0.5]];portConstraint=eastwest;" parent="3E4YJcaUi-_Q7NZZ8Shz-18" vertex="1">
                    <mxGeometry y="104" width="471" height="173" as="geometry"/>
                </mxCell>
                <mxCell id="3E4YJcaUi-_Q7NZZ8Shz-22" value="" style="endArrow=classic;html=1;rounded=0;strokeWidth=2;sourcePerimeterSpacing=0;" parent="WIyWlLk6GJQsqaUBKTNV-1" source="3E4YJcaUi-_Q7NZZ8Shz-18" target="3E4YJcaUi-_Q7NZZ8Shz-8" edge="1">
                    <mxGeometry width="50" height="50" relative="1" as="geometry">
                        <mxPoint x="-232" y="364" as="sourcePoint"/>
                        <mxPoint x="-282" y="414" as="targetPoint"/>
                    </mxGeometry>
                </mxCell>
                <mxCell id="3E4YJcaUi-_Q7NZZ8Shz-26" value="" style="endArrow=classic;html=1;rounded=0;strokeWidth=2;targetPerimeterSpacing=0;" parent="WIyWlLk6GJQsqaUBKTNV-1" source="3E4YJcaUi-_Q7NZZ8Shz-18" target="3E4YJcaUi-_Q7NZZ8Shz-12" edge="1">
                    <mxGeometry width="50" height="50" relative="1" as="geometry">
                        <mxPoint x="-84" y="310" as="sourcePoint"/>
                        <mxPoint x="-34" y="260" as="targetPoint"/>
                    </mxGeometry>
                </mxCell>
            </root>
        </mxGraphModel>
    </diagram>
</mxfile>